<?xml version="1.0" encoding="utf-8"?>
<!-- Generator: Adobe Illustrator 25.2.1, SVG Export Plug-In . SVG Version: 6.00 Build 0)  -->
<svg version="1.1" xmlns="http://www.w3.org/2000/svg" xmlns:xlink="http://www.w3.org/1999/xlink" x="0px" y="0px"
	 viewBox="0 0 750 500" style="enable-background:new 0 0 750 500;" xml:space="preserve">
<style type="text/css">
	.st0{display:none;}
	.st1{display:inline;fill:#FEFEFE;}
	.st2{display:inline;fill:#FCE7E4;}
	.st3{fill:#F4B0A7;}
	.st4{fill:#FFD4CD;}
	.st5{fill:#407FFE;}
	.st6{fill:#FEFEF4;}
	.st7{fill:#FCE7E4;}
	.st8{fill:none;stroke:#FEFEF4;stroke-width:1.9411;stroke-miterlimit:10;}
	.st9{fill:none;stroke:#FEFEF4;stroke-width:1.4768;stroke-miterlimit:10;}
	.st10{fill:none;stroke:#FEFEF4;stroke-width:4.522;stroke-miterlimit:10;}
	.st11{font-family:'Poppins-ExtraBold';}
	.st12{font-size:69.3587px;}
	.st13{fill:none;stroke:#FEFEF4;stroke-width:1.4304;stroke-miterlimit:10;}
	.st14{fill:none;stroke:#000000;stroke-width:1.5516;stroke-miterlimit:10;}
	.st15{fill:#F26E5A;}
	.st16{fill:none;stroke:#DB5749;stroke-width:1.5;stroke-miterlimit:10;}
	.st17{fill:none;stroke:#FCE7E4;stroke-width:1.5516;stroke-miterlimit:10;}
	.st18{fill:#DB5749;}
	.st19{fill:none;stroke:#000000;stroke-width:1.2385;stroke-linecap:round;stroke-linejoin:round;stroke-miterlimit:10;}
</style>
<g id="BACKGROUND" class="st0">
	<rect x="0" y="0.19" class="st1" width="750" height="500"/>
	<rect x="0" y="0.19" class="st2" width="750" height="500"/>
</g>
<g id="OBJECTS">
	<g>
		<g>
			<path class="st3" d="M203.76,173.49H89.34c-2.44,0-4.42-1.98-4.42-4.42l0,0c0-2.44,1.98-4.42,4.42-4.42h114.43
				c2.44,0,4.42,1.98,4.42,4.42l0,0C208.18,171.51,206.2,173.49,203.76,173.49z"/>
			<path class="st4" d="M414.61,55.26h-74.55c-2.5,0-4.53-2.03-4.53-4.53l0,0c0-2.5,2.03-4.53,4.53-4.53h74.55
				c2.5,0,4.53,2.03,4.53,4.53l0,0C419.14,53.23,417.11,55.26,414.61,55.26z"/>
			<path class="st5" d="M140.29,231.84h-13.15c-3.46,0-6.26-2.8-6.26-6.26v-12.35c0-3.46,2.8-6.26,6.26-6.26h13.15
				c3.46,0,6.26,2.8,6.26,6.26v12.35C146.55,229.04,143.75,231.84,140.29,231.84z"/>
			<path class="st3" d="M522.93,451.1h-7.18c-1.89,0-3.41-1.53-3.41-3.41v-6.74c0-1.89,1.53-3.41,3.41-3.41h7.18
				c1.89,0,3.41,1.53,3.41,3.41v6.74C526.34,449.57,524.81,451.1,522.93,451.1z"/>
			<path class="st5" d="M651.65,163.41h-7.18c-1.89,0-3.41-1.53-3.41-3.41v-6.74c0-1.89,1.53-3.41,3.41-3.41h7.18
				c1.89,0,3.41,1.53,3.41,3.41v6.74C655.06,161.88,653.53,163.41,651.65,163.41z"/>
			<polygon class="st6" points="149.82,371.57 113.58,390.34 124.02,395.4 111.05,410.9 121.17,419.18 133.69,402.54 142.09,411.54 
							"/>
			<path class="st4" d="M276,449.67h-42.34c-3.14,0-5.68-2.54-5.68-5.68l0,0c0-3.14,2.54-5.68,5.68-5.68H276
				c3.14,0,5.68,2.54,5.68,5.68l0,0C281.68,447.13,279.14,449.67,276,449.67z"/>
		</g>
		<g>
			<path class="st7" d="M547.75,409.45H206.74c-3.95,0-7.15-3.2-7.15-7.15V118.27c0-3.95,3.2-7.15,7.15-7.15h341.01
				c3.95,0,7.15,3.2,7.15,7.15V402.3C554.9,406.25,551.7,409.45,547.75,409.45z"/>
			<line class="st8" x1="199.59" y1="147.02" x2="554.9" y2="147.02"/>
			<path class="st8" d="M547.75,409.45H206.74c-3.95,0-7.15-3.2-7.15-7.15V118.27c0-3.95,3.2-7.15,7.15-7.15h341.01
				c3.95,0,7.15,3.2,7.15,7.15V402.3C554.9,406.25,551.7,409.45,547.75,409.45z"/>
			<g>
				<circle class="st8" cx="229.63" cy="129.44" r="5.01"/>
				<circle class="st8" cx="249.09" cy="129.44" r="5.01"/>
				<circle class="st8" cx="268.56" cy="129.44" r="5.01"/>
			</g>
		</g>
	</g>
	<g>
		<g>
			<path class="st4" d="M273.35,355.68H92.8c-5.72,0-10.35-4.64-10.35-10.35V278.4c0-5.72,4.64-10.35,10.35-10.35h180.55
				c5.72,0,10.35,4.64,10.35,10.35v66.93C283.71,351.05,279.07,355.68,273.35,355.68z"/>
			<g>
				<path class="st9" d="M106.85,284.32c0,2.1-1.71,3.81-3.81,3.81c-2.1,0-3.81-1.71-3.81-3.81c0-2.1,1.71-3.81,3.81-3.81
					C105.15,280.51,106.85,282.21,106.85,284.32z"/>
				<circle class="st9" cx="117.85" cy="284.32" r="3.81"/>
				<circle class="st9" cx="132.66" cy="284.32" r="3.81"/>
			</g>
			<line class="st9" x1="82.45" y1="298.74" x2="283.71" y2="298.74"/>
		</g>
		<g>
			<path class="st4" d="M597.84,156.8h-81c-6.76,0-12.24-5.48-12.24-12.24V79.22c0-6.76,5.48-12.24,12.24-12.24h81
				c6.76,0,12.24,5.48,12.24,12.24v65.34C610.08,151.32,604.6,156.8,597.84,156.8z"/>
			<g>
				<path class="st6" d="M550.68,122.11c-10.05,0-18.23-8.18-18.23-18.23c0-10.05,8.18-18.23,18.23-18.23
					c10.05,0,18.23,8.18,18.23,18.23C568.91,113.93,560.73,122.11,550.68,122.11z M550.68,89.79c-7.77,0-14.1,6.32-14.1,14.1
					c0,7.77,6.32,14.1,14.1,14.1c7.77,0,14.1-6.32,14.1-14.1C564.78,96.11,558.46,89.79,550.68,89.79z"/>
				
					<rect x="562.72" y="114.22" transform="matrix(0.7071 -0.7071 0.7071 0.7071 81.9675 433.9277)" class="st6" width="4.13" height="7.61"/>
				<path class="st6" d="M571.7,118.48l10.65,10.65c1.13,1.13,1.13,2.96,0,4.09l-2.37,2.37c-1.13,1.13-2.96,1.13-4.09,0
					l-10.65-10.65c-1.13-1.13-1.13-2.96,0-4.09l2.37-2.37C568.74,117.35,570.57,117.35,571.7,118.48z"/>
			</g>
		</g>
		<g>
			<path class="st5" d="M168.67,128.64h-46.55c-7.81,0-14.13-6.33-14.13-14.13V75.03c0-7.81,6.33-14.13,14.13-14.13h46.55
				c7.81,0,14.13,6.33,14.13,14.13v39.48C182.8,122.32,176.48,128.64,168.67,128.64z"/>
			<g>
				<path class="st6" d="M145.4,109.37c-8.74,0-15.85-7.11-15.85-15.85c0-8.74,7.11-15.85,15.85-15.85s15.85,7.11,15.85,15.85
					C161.24,102.26,154.13,109.37,145.4,109.37z M145.4,82.43c-6.11,0-11.09,4.97-11.09,11.09c0,6.11,4.97,11.09,11.09,11.09
					c6.11,0,11.09-4.97,11.09-11.09C156.48,87.4,151.51,82.43,145.4,82.43z"/>
				<line class="st10" x1="154.74" y1="82.43" x2="136.56" y2="104.6"/>
			</g>
		</g>
		<g>
			<path class="st5" d="M666.53,366.96H497.89c-7.21,0-13.05-5.84-13.05-13.05V228.07c0-7.21,5.84-13.05,13.05-13.05h168.64
				c7.21,0,13.05,5.84,13.05,13.05v125.84C679.58,361.12,673.73,366.96,666.53,366.96z"/>
			<text transform="matrix(1 0 0 1 512.336 320.4443)" class="st6 st11 st12">404</text>
			<g>
				<circle class="st13" cx="504.99" cy="229.37" r="3.69"/>
				<circle class="st13" cx="519.34" cy="229.37" r="3.69"/>
				<circle class="st13" cx="533.68" cy="229.37" r="3.69"/>
			</g>
			<line class="st13" x1="484.84" y1="244.77" x2="679.58" y2="244.77"/>
		</g>
	</g>
	<g>
		<g>
			<path class="st5" d="M395.81,303.37l-0.74-10.03l-62.55,3.07v9.68c0,0-14.07,13.38-19.62,102.43h112.59
				C425.49,408.52,437.84,329.72,395.81,303.37z"/>
			<g>
				<line class="st14" x1="332.52" y1="306.1" x2="395.81" y2="303.37"/>
				<polyline class="st14" points="345.45,347.15 358.42,352.43 365.36,408.52 				"/>
			</g>
		</g>
		<g>
			<g>
				<g>
					<path class="st15" d="M264.14,283.98l17.28-57.04l38.01,14.25l-18.24,54.63c-3.74,11.28-16.63,16.61-27.24,11.24
						C265.5,302.78,261.36,293.03,264.14,283.98z"/>
					<path class="st6" d="M290.8,196.47c3.42-11.12,15.36-17.21,26.37-13.45c10.7,3.66,16.47,15.25,12.91,25.99l-10.65,32.16
						l-38.01-14.25L290.8,196.47z"/>
				</g>
				<g>
					<path class="st15" d="M293.49,279.7l-43.41-82.31c0,0,0.99-14.87-23.71-15.76l0.01,0.02c-0.34-0.02-0.67-0.05-1.01-0.05h-8.26
						c-1.53,0-2.93,1.08-3.14,2.6c-0.24,1.76,0.99,3.27,2.64,3.48l8.33,1.18l-11.33,3.02l-2.12,0.78l-15.43-10.2
						c-1.23-0.88-2.95-0.47-3.66,0.86c-0.56,1.05-0.31,2.34,0.6,3.1c0.95,0.79,2.48,2.11,4.16,3.55l-3.41-2.04
						c-1.3-0.78-2.98-0.24-3.58,1.15c-0.47,1.09-0.12,2.35,0.85,3.04c0.83,0.59,1.9,1.34,3.04,2.14l-1.18-0.46
						c-1.3-0.51-2.83-0.14-3.63,1.01c-1.08,1.56-0.43,3.68,1.28,4.39l16.86,7.06c2.91,1.22,5.69,1.98,9.12,1.17l15.03-3.54
						l33.63,94.14L293.49,279.7z"/>
					<line class="st16" x1="275.67" y1="245.92" x2="283.71" y2="261.15"/>
				</g>
			</g>
			<g>
				<path class="st6" d="M324.59,182.12l-16.14,1.21c0,0-23.36,31.69,24.07,113.09l62.55-3.07l4.71-87.7l-7.72-24.9h-28.02
					L324.59,182.12z"/>
				<path class="st17" d="M306.28,236.25c0,0-4.65-9.79-1.66-31.47"/>
			</g>
			<g>
				<g>
					<path class="st15" d="M451.46,272.52l-25.98-53.64l-35.32,20.01L416.71,290c5.45,10.56,19.02,13.81,28.66,6.85
						C453.06,291.31,455.63,281.03,451.46,272.52z"/>
					<g>
						<path class="st6" d="M411.47,190.26c-5.12-10.45-17.86-14.6-28.15-9.16c-10,5.28-13.88,17.64-8.69,27.69l15.54,30.11
							l35.32-20.01L411.47,190.26z"/>
						<line class="st17" x1="390.17" y1="238.89" x2="377.34" y2="214.03"/>
					</g>
				</g>
				<g>
					<path class="st15" d="M505.68,180.75c-0.79-1.15-2.33-1.51-3.63-1.01l-7.55,2.95l7.09-6c1.17-0.99,1.5-2.75,0.62-4
						c-1.02-1.44-2.97-1.66-4.26-0.61l-6.59,5.31l5.62-7.35c0.93-1.22,0.88-3.01-0.26-4.04c-1.3-1.19-3.25-0.98-4.3,0.31
						l-11.1,11.52L470,174.8l8.33-1.18c1.65-0.21,2.89-1.72,2.64-3.48c-0.21-1.52-1.61-2.6-3.14-2.6h-8.26
						c-4.88,0-9.64,1.7-13.25,4.94c-0.06,0.05-0.12,0.08-0.18,0.13c-5.07,4-3.22,12.19-3.22,12.19l-31.11,88.08l30.83,13.68
						l17.77-94.59l11.35,0.02c0.7,0.07,1.41,0.06,2.12,0l0.09,0l-0.01,0c1.22-0.11,2.43-0.4,3.58-0.88l16.86-5.97
						C506.11,184.43,506.76,182.31,505.68,180.75z"/>
					<line class="st16" x1="433.9" y1="236.25" x2="427.18" y2="259.71"/>
				</g>
			</g>
		</g>
		<g>
			<path d="M323.34,109.46c-1.94,1.33-14.98,4.72-15.24,7.09c0,0,4.29,16.77-0.1,19.9c-11.88,8.46-15.68,25.05-15.68,25.05
				s31.34,23.47,114.64-1.17c0,0,1-9.98-14.15-17.22c-4.32-2.07-8.17-5.18-10.6-9.42c-1.88-3.28-2.17-4.67-2.67-7.61
				C378.14,117.85,355.44,87.44,323.34,109.46z"/>
			<path class="st18" d="M324.57,134.6c0.38,5.5-3.77,10.28-9.27,10.66c-5.5,0.38-10.28-3.77-10.66-9.27
				c-0.38-5.5,3.77-10.28,9.27-10.66C319.41,124.94,324.18,129.09,324.57,134.6z"/>
			<path class="st15" d="M329.08,159.07l1.38,21.73c0.47,7.63,3.59,12.83,11.1,12.31l0,0c6.41-0.45,14.03-5.58,14.38-11.99
				l-3.82-34.09L329.08,159.07z"/>
			<path class="st15" d="M324.59,182.12l39.44-1.37c0,0-0.96,19.39-24.4,17.58C323.34,197.06,324.59,182.12,324.59,182.12z"/>
			<polygon class="st18" points="330.22,176.97 355.43,152.32 328.89,156.84 			"/>
			<path class="st15" d="M335.69,162.58L335.69,162.58c-12.84,0.04-23.44-10.07-23.82-20.55l-0.76-24.73
				c-0.48-13.14,9.55-24.29,22.66-25.2l0,0c13.42-0.93,27.42,9.03,28.35,22.45l0.39,19.9C362.82,149.84,351.05,161.51,335.69,162.58
				z"/>
			<g>
				<polyline class="st19" points="325.33,133.32 324.59,139.46 327.77,139.58 				"/>
				<path d="M338.01,118.33c0,0-7.09-0.58-7.16,2.3c0,0,0.01,1.95,6.19,2.34c6.19,0.39,7.8-0.07,8.36-1.9
					C345.97,119.24,341.34,118.35,338.01,118.33z"/>
				<path d="M317.46,122.54c0,0,5.37-0.43,5.88,2.16c0,0,0.3,1.76-4.4,2.03c-4.7,0.27-6.16-0.31-6.25-1.8
					C312.57,123.16,314.9,122.52,317.46,122.54z"/>
				<path d="M320.57,130.98c0.04,1.25-0.94,2.3-2.19,2.34c-1.25,0.04-2.3-0.94-2.34-2.19c-0.04-1.25,0.94-2.3,2.19-2.34
					C319.48,128.74,320.53,129.72,320.57,130.98z"/>
				<path d="M339.63,130.35c0.04,1.25-0.94,2.3-2.19,2.34c-1.25,0.04-2.3-0.94-2.34-2.19c-0.04-1.25,0.94-2.3,2.19-2.34
					C338.54,128.12,339.59,129.1,339.63,130.35z"/>
				<path class="st19" d="M332.99,143.85c0,0-3.35-1.53-7.41,1.97"/>
			</g>
			<path d="M341.72,87.84c-3.2-0.17-6.43,0.18-9.52,1.01c-7.69,2.05-21.49,7.74-23.86,22.51c-0.79,3.89-0.24,5.2-0.24,5.2
				s25.78,1.01,41.03-6.19c2.19,9.29,4.22,15.04,13.4,24.08l8.15-12.24l9.17,8.22C379.9,130.74,379.88,89.87,341.72,87.84z"/>
			<g>
				<path class="st15" d="M375.9,134.7c0.38,5.5-3.77,10.28-9.27,10.66c-5.5,0.38-10.28-3.77-10.66-9.27
					c-0.38-5.5,3.77-10.28,9.27-10.66C370.74,125.04,375.51,129.19,375.9,134.7z"/>
				<path class="st19" d="M362.12,138.25c0,0-0.5-7.22,6.48-6.57"/>
			</g>
		</g>
	</g>
</g>
<g id="DESIGNED_BY_FREEPIK">
</g>
</svg>
